<?xml version="1.0" encoding="utf-8"?>
<!-- Svg Vector Icons : http://www.onlinewebfonts.com/icon -->
<!DOCTYPE svg PUBLIC "-//W3C//DTD SVG 1.1//EN" "http://www.w3.org/Graphics/SVG/1.1/DTD/svg11.dtd">
<svg version="1.1" xmlns="http://www.w3.org/2000/svg" xmlns:xlink="http://www.w3.org/1999/xlink" x="0px" y="0px" viewBox="0 0 1000 1000" enable-background="new 0 0 1000 1000" xml:space="preserve">
<metadata> Svg Vector Icons : http://www.onlinewebfonts.com/icon </metadata>
<g><g><path style="fill:#FFFFFF;" d="M895.2,658c-3.3-1.8-6.4-2.7-9.5-2.9c29.3-98.8,52.9-200.4,26.9-299.5c-2.3-8.7-10.3-14.3-19.1-14.5c-117.7-3.5-236-6.9-354.2-8.3c2.7-16.4,0.1-35.2,0.5-50.8c0.8-31,1.9-62.6,8.3-93c2.4-11.3-5-22-16.9-22.3c-2.1,0-4.2,0-6.4,0c-0.9-17.5-1.8-35.4,3.5-51.9c10.3-12.3,16.4-26.6,12.4-44.1c-4.2-18.2-26.4-47.6-44.5-52.3c-5.2-1.4-10.4,2.5-10.4,8c-0.2,15.7,14.4,29.2,22.7,41.7c6.7,10.2,5.1,18.4-0.1,25.7c-3.7-10.3-7-20.8-9.6-31.4c-1.1-4.5-1.6-9.9-5.1-13.4c-1.9-1.9-4.8-2.2-5.3-5.1c-0.7-3.7-6.8-3.7-7.4,0c-0.5,2.9-1.4,3.1-3.7,5.1c-4.6,4-3.7,11.5-3.3,16.8c1.5,21.6,7.8,41.2,16.9,60.8c2.7,5.9,8.6,7.6,14.2,6.6c-2.7,10.9-4.1,22.2-4.8,33.4c-11.4,0-22.8-0.2-34.2-0.2c-7.2,0-16.2,5.4-17.3,13.2c-6.9,48.9-4.4,103.1,5,152.7c-126.2-0.2-252.4,2.7-377.9,11.5c-12.2,0.9-18.1,10.2-16.5,21.7c15.2,111.9,34.2,221.8,70.6,327.1C21.8,704.9-31.3,835.3,48.1,916.7c78.9,80.8,240.8,63.6,341.8,61.2c168.3-4,350,29.7,506.6-48.5C1028.3,863.6,1014.2,723.7,895.2,658z M482,202.3c9.8,0,19.6-0.1,29.4-0.2c-2.9,23.2-5,46.4-5.9,69.9c-0.7,17.8-4.5,41-1.2,60.5c-9-0.1-18-0.2-27-0.2C482.3,289.6,477.9,245.3,482,202.3z M118.3,505.1c-9.1-42.4-17-85-23-127.9c217.1-12.1,435-1.7,652.2,2.9c12.5,0.3,129-4.6,131.1,4c3.8,15.4,4.9,31.5,4.6,47.8c-0.6,0.4-1.2,0.5-1.7,1c-11.9,9.6-22.8,28.2-40.7,25.4c-18.2-2.8-30.6-24.3-39.6-38.1c-5.2-8-17.7-6-21.3,1c-4.2,0.4-8.3,2.3-11.3,6.5c-18.7,26.2-41.1,48.4-54.6,3.3c-5.2-17.3-33.6-14.7-32.3,4.4c7.5,115-123.2,83.8-131.6-9.3c-0.5-6-5.1-9.2-9.7-9.4c-5.1-5-13.4-6.8-19.3-0.4c-31.5,35-69,52.2-97.1,1.7c-7.5-13.5-30.9-8.1-29.9,8.1c1.7,26.5,1,61.3-33,63.8c-38.6,2.8-54.1-42.8-55.6-73.1c-0.4-9.1-12.6-8.6-13.7,0c-0.2,1.8-0.3,3.5-0.5,5.3c-1.7-5.9-7-10.4-14.5-7.9c-10.3,3.5-18.4,8.6-26.8,15.6c-21,17.4-30.3,31.8-50.8-1.4c-8-13-31-4.6-25.4,10.7c9.9,27,20.1,54,13.4,83.1C177.7,563.8,131.5,520.2,118.3,505.1z M125.6,537.9c19.5,21.9,46.5,40.3,71.8,17.5c22.5-20.4,25.5-51.5,19.4-80.8c4.6,1,9.5,1.3,15,0.4c21-3.5,31.8-30.3,51.8-37.1c3.8-1.3,6.2-3.8,7.4-6.7c-0.8,44.4,21.5,83.8,70.3,89.2c37.1,4.1,57-23.7,63.6-54.9c34.1,24.7,77,18.5,107.4-17.6c7.6,46.9,40.2,88.9,90.5,95.5c47.6,6.2,77.9-20.6,88.7-58.3c23.5,16.9,51.6,0.9,78.6-35.3c10.5,18.3,25.2,34,46.7,39.4c13.8,3.4,28.6,0,41.5-7.3c-3.4,19.8-7.8,39.2-11.9,57.5c-12,53.8-28.8,106.3-44.5,159c-206.8-60.5-452.8-78.8-664.2-31.6c-3.1-11.7-6.2-23.4-9.3-35.1c223.5,10.3,447.6-62,662.4,31.6c19.2,8.4,36.1-19.6,16.6-28.5c-216.8-98.4-456.6-42.2-684.4-24C136.9,586.5,131.2,562.2,125.6,537.9z M766.7,740.4c-25.4-3.7-48.8,7.4-68.2,23.2c-23.3-52.8-65.1-41.7-98.2-7.4c-25.9-44-65.4-40.1-99.3-3.6c-9.1-24.7-24.7-44.2-55-47.7c-34.8-3.9-56.7,31.7-66.6,62.5c-11.7-15.8-30.5-33.3-48.6-38c-15.8-4.1-28.6,6.9-38.5,19.8c-12.2-25.6-30.9-49.8-60.8-35.8c-12.6,5.9-21.4,21.1-28.3,32.4c-3.5,5.8-7.2,12.4-9.4,18.9c-3.5,10.5-3.2,8.2,2.9,7.8c-4.2,0.3-8,4.8-6,9c-0.4,0.4-0.8,0.8-1.2,1.2c-9.1-32.8-18.2-65.6-27.2-98.5c221.3-21.1,432.4,11.7,650.8,44.8c-3,10.4-6.1,20.8-8.9,31.3C793.4,749.9,779.9,742.4,766.7,740.4z M783.2,790.6c-168.6,100.6-395.1,44.3-573-8.2c3.2-2.2,6-5,7.8-7.6c7-10.4,13-21.6,21.3-31c17.6-19.8,32.8,28.5,36.8,38.9c4.2,10.9,18.9,14.5,25.5,3.3c10.8-18,19.2-35.5,37.9-17.8c10.1,9.6,17.5,17.4,30.5,22.1c1.7,0.6,3.4,0.6,5,0.3c2.3,6.6,12.1,7.8,15.2-0.3c21.2-54.8,79.5-85.3,87.6-2.2c1.5,15.7,20.8,22.1,29.9,8.1c22.1-34,57-54.2,71.8-3.5c4.5,15.5,22.6,15.4,31.3,4.1c22-28.8,40.6-38,66.7-9c-0.1,8.7,10.9,15.9,19.6,8.5c16.4-14,38-28.4,60.8-24.7C770.6,773.9,777.5,781.6,783.2,790.6z M773.4,925.5c-115.7,25.5-239.2,7.5-356.5,8.4c-70.4,0.6-140.2,4.8-210.5-1.8c-45.1-4.2-93.4-15.4-129.4-44.3c-68.8-55.3-7.6-153.7,62.4-169.1c11.8,31.2,25.1,62.1,40.6,92.4c4.5,8.7,18.1,2.6,15.6-6.6c-0.7-2.5-1.4-4.9-2-7.4c181.2,84.3,438.9,151.4,618.6,29.3c2.6-1.8,4.6-3.9,6.2-6.1c10.1,1,20.4-3.8,23.7-16.6c8.9-35.3,20.2-71.5,31.4-108.1C1036.1,788,892.4,899.3,773.4,925.5z"/></g><g></g><g></g><g></g><g></g><g></g><g></g><g></g><g></g><g></g><g></g><g></g><g></g><g></g><g></g><g></g></g>
</svg>